<svg xmlns="http://www.w3.org/2000/svg" width="32" height="32" id="file"><g transform="translate(0 -1020.362)"><path fill="none" stroke="#000" stroke-linecap="round" stroke-linejoin="round" d="M26.496 1027.866v21.5c0 .83-.669 1.5-1.5 1.5h-18c-.83 0-1.5-.67-1.5-1.5v-26c0-.831.67-1.5 1.5-1.5h13.5z"></path><path stroke="#000" stroke-linecap="round" stroke-linejoin="round" d="M26.496 1027.866h-4.5c-.83 0-1.5-.67-1.5-1.5v-4.5"></path><path d="M5.004 1044.366v3h.182c-.111.314-.182.647-.182 1 0 1.662 1.338 3 3 3h16c1.662 0 3-1.338 3-3 0-.353-.07-.686-.182-1h.182v-3h-22zm4.574.986h1.926a.5.5 0 1 1 0 1H9.578a.563.563 0 0 0-.574.574v1.852c0 .327.248.574.574.574h.852a.563.563 0 0 0 .574-.574v-.426h-.494a.5.5 0 1 1 0-1h.986a.5.5 0 0 1 .035 0 .5.5 0 0 1 .065.01.5.5 0 0 1 .033.01.5.5 0 0 1 .016 0 .5.5 0 0 1 .033.011.5.5 0 0 1 .162.1.5.5 0 0 1 .006.01.5.5 0 0 1 .011.012.5.5 0 0 1 .024.025.5.5 0 0 1 .01.012.5.5 0 0 1 .021.027.5.5 0 0 1 .045.08.5.5 0 0 1 .004.01.5.5 0 0 1 .006.015.5.5 0 0 1 .012.032.5.5 0 0 1 .023.113.5.5 0 0 1 .002.035.5.5 0 0 1 0 .01.5.5 0 0 1 0 .01v.986a.5.5 0 0 1-.024.158 1.58 1.58 0 0 1-1.55 1.348h-.852c-.863 0-1.574-.711-1.574-1.574v-1.852c0-.863.71-1.574 1.574-1.574v-.014zm3.918.014a.5.5 0 0 1 .508.506v3.988a.5.5 0 1 1-1 0v-3.988a.5.5 0 0 1 .492-.506zm3.082 0h.926a.5.5 0 1 1 0 1h-.926a.563.563 0 0 0-.574.574v.426h1a.5.5 0 1 1 0 1h-1v1.5a.5.5 0 1 1-1 0v-1.969a.5.5 0 0 1 0-.074v-.883c0-.863.71-1.574 1.574-1.574z"></path><path fill-rule="evenodd" d="m7 1042.366 5-7 5 7z"></path><path fill-rule="evenodd" d="m11 1042.366 7-10 7 10z"></path><circle cx="11" cy="1031.366" r="2"></circle></g></svg>