<svg xmlns="http://www.w3.org/2000/svg" width="32" height="32" id="file"><path fill="none" stroke="#000" stroke-linecap="round" stroke-linejoin="round" d="M26.496 7.504v21.5c0 .83-.669 1.5-1.5 1.5h-18c-.83 0-1.5-.67-1.5-1.5v-26c0-.831.67-1.5 1.5-1.5h13.5z"></path><path d="M5 24.004v5c0 1.108.892 2 2 2h18c1.108 0 2-.892 2-2v-5H5zm17.518.978a.5.5 0 0 1 .382.207l2.098 2.801V25.5a.5.5 0 0 1 .492-.508.5.5 0 0 1 .508.508v3.988a.5.5 0 0 1-.902.301l-.014-.018a.5.5 0 0 0-.002 0l-2.082-2.779v2.5a.5.5 0 1 1-1 0V25.53a.5.5 0 0 1 .469-.54.5.5 0 0 1 .05 0v-.007zm-13.026.016a.5.5 0 0 1 .508.508v3.002a.5.5 0 0 1-.016.133A1.503 1.503 0 0 1 8.5 30c-.822 0-1.5-.678-1.5-1.5a.5.5 0 0 1 .492-.506A.5.5 0 0 1 8 28.5c0 .286.214.5.5.5.286 0 .5-.214.5-.5v-2.992A.5.5 0 0 1 9.492 25v-.002zm2.95.002a.5.5 0 0 1 .05 0 .5.5 0 0 1 .035 0h1.965a.5.5 0 1 1 0 1h-2c-.285 0-.5.214-.5.5 0 .286.215.5.5.5a.5.5 0 0 1 .035 0h.965a.5.5 0 0 1 .108.01 1.505 1.505 0 0 1 1.392 1.49c0 .787-.622 1.433-1.396 1.488a.5.5 0 0 1-.104.012h-2a.5.5 0 1 1 0-1h2c.286 0 .5-.214.5-.5 0-.286-.214-.5-.5-.5h-1a.5.5 0 0 1-.094-.01 1.504 1.504 0 0 1-1.406-1.49c0-.784.617-1.428 1.387-1.488A.5.5 0 0 1 12.44 25zm6.058 0c1.375 0 2.5 1.125 2.5 2.5S19.875 30 18.5 30a2.508 2.508 0 0 1-2.5-2.5c0-1.375 1.125-2.5 2.5-2.5zm0 1c-.834 0-1.5.666-1.5 1.5s.666 1.5 1.5 1.5 1.5-.666 1.5-1.5-.666-1.5-1.5-1.5z"></path><path stroke="#000" stroke-linecap="round" stroke-linejoin="round" d="M26.496 7.504h-4.5c-.83 0-1.5-.67-1.5-1.5v-4.5"></path><path d="M13.508 1030.366c-1.1 0-2 .9-2 2v1c0 .563-.438 1-1 1a.5.5 0 0 0-.498.406.5.5 0 0 0 .148.456.5.5 0 0 0 .078.06.5.5 0 0 0 .139.06.5.5 0 0 0 .098.015.5.5 0 0 0 .035 0c.562 0 1 .438 1 1v1.001c0 1.099.9 2 2 2a.5.5 0 1 0 0-1c-.563 0-1-.438-1-1v-1.001c0-.598-.273-1.132-.694-1.5a1.99 1.99 0 0 0 .694-1.5v-1c0-.562.437-1 1-1a.5.5 0 1 0 0-1zm3.933 0a.5.5 0 0 0 .051 1c.563 0 1 .437 1 1v1c0 .599.273 1.133.694 1.5-.42.368-.694.902-.694 1.5v1c0 .563-.437 1-1 1a.5.5 0 1 0 0 1c1.1 0 2-.9 2-2v-1c0-.562.438-1 1-1a.5.5 0 0 0 .324-.113.5.5 0 0 0 .038-.035.5.5 0 0 0-.362-.852c-.562 0-1-.437-1-1v-1c0-1.1-.9-2-2-2a.5.5 0 0 0-.05 0zm-1.941 1.996a.5.5 0 0 0-.5.5.5.5 0 0 0 .5.5.5.5 0 0 0 .5-.5.5.5 0 0 0-.5-.5zm-.008 1.994a.5.5 0 0 0-.492.506v3a.5.5 0 1 0 1 0v-3a.5.5 0 0 0-.508-.506z" color="#000" font-family="sans-serif" font-weight="400" overflow="visible" style="line-height:normal;text-indent:0;text-align:start;text-decoration-line:none;text-decoration-style:solid;text-decoration-color:#000;text-transform:none;block-progression:tb;isolation:auto;mix-blend-mode:normal" transform="translate(0 -1020.362)"></path></svg>