<svg xmlns="http://www.w3.org/2000/svg" width="32" height="32" id="file"><path fill="none" stroke="#000" stroke-linecap="round" stroke-linejoin="round" d="M26.498 7.504v21.5c0 .83-.669 1.5-1.5 1.5h-18c-.83 0-1.5-.67-1.5-1.5v-26c0-.831.67-1.5 1.5-1.5h13.5z"></path><path d="M4.998 24.004v5c0 1.108.892 2 2 2h18c1.108 0 2-.892 2-2v-5h-22zm6.467.98a.5.5 0 0 1 .05 0 .5.5 0 0 1 .487.53v3.976a.5.5 0 1 1-1 0v-2.502l-.602.803a.5.5 0 0 1-.8 0l-.602-.803v2.502a.5.5 0 1 1-1 0v-3.988a.5.5 0 0 1 .492-.508.5.5 0 0 1 .408.201h.004L10 26.66l1.098-1.465a.5.5 0 0 1 .367-.207v-.004zm7.996.014a.5.5 0 0 1 .05 0 .5.5 0 0 1 .46.332l1.031 2.75 1.031-2.75a.5.5 0 0 1 .938.35l-1.5 4a.5.5 0 0 1-.938 0l-1.5-4a.5.5 0 0 1 .428-.682zm-3.959.01c1.375 0 2.5 1.125 2.5 2.5s-1.125 2.5-2.5 2.5a2.508 2.508 0 0 1-2.5-2.5c0-1.375 1.125-2.5 2.5-2.5zm0 1c-.834 0-1.5.666-1.5 1.5s.666 1.5 1.5 1.5 1.5-.666 1.5-1.5-.666-1.5-1.5-1.5z"></path><path stroke="#000" stroke-linecap="round" stroke-linejoin="round" d="M26.495 7.504h-4.5c-.831 0-1.5-.67-1.5-1.5v-4.5"></path><path d="M15.998 1027.862c-3.86 0-7 3.14-7 7s3.14 7 7 7 7-3.14 7-7-3.14-7-7-7zm0 1c3.32 0 6 2.68 6 6s-2.68 6-6 6-6-2.68-6-6 2.68-6 6-6zm-1.992 1.963a.5.5 0 0 0-.508.5v7.072a.5.5 0 0 0 .79.409l4.991-3.537a.5.5 0 0 0 0-.817l-4.992-3.535a.5.5 0 0 0-.281-.094zm.492 1.469 3.627 2.568-3.627 2.57v-5.138z" color="#000" font-family="sans-serif" font-weight="400" overflow="visible" style="line-height:normal;text-indent:0;text-align:start;text-decoration-line:none;text-decoration-style:solid;text-decoration-color:#000;text-transform:none;block-progression:tb;isolation:auto;mix-blend-mode:normal" transform="translate(0 -1020.362)"></path></svg>