<svg xmlns="http://www.w3.org/2000/svg" width="32" height="32" id="file"><path fill="none" stroke="#000" stroke-linecap="round" stroke-linejoin="round" d="M26.496 7.504v21.5c0 .83-.669 1.5-1.5 1.5h-18c-.83 0-1.5-.67-1.5-1.5v-26c0-.831.67-1.5 1.5-1.5h13.5z"></path><path d="M5 24.004v5c0 1.108.892 2 2 2h18c1.108 0 2-.892 2-2v-5H5zm7.475.986a.5.5 0 0 1 .123.014h.898a.5.5 0 0 1 .15.021c1.304.114 2.35 1.168 2.35 2.479 0 1.314-1.05 2.37-2.36 2.478a.5.5 0 0 1-.148.02h-.998a.5.5 0 0 1-.168-.025.5.5 0 0 1-.027-.012.5.5 0 0 1-.076-.04.5.5 0 0 1-.035-.02.5.5 0 0 1-.012-.01.5.5 0 0 1-.014-.014.5.5 0 0 1-.025-.022.5.5 0 0 1-.012-.013.5.5 0 0 1-.025-.028.5.5 0 0 1-.024-.029.5.5 0 0 1-.006-.01.5.5 0 0 1-.02-.031.5.5 0 0 1-.026-.057.5.5 0 0 1-.014-.035.5.5 0 0 1-.004-.013.5.5 0 0 1-.02-.182v-3.963a.5.5 0 0 1 .493-.508zM9.496 25v.004c.823 0 1.5.677 1.5 1.5 0 .822-.677 1.5-1.5 1.5-.176 0-.343-.037-.5-.094v1.588a.5.5 0 1 1-1 0v-3.004a.5.5 0 0 1 .014-.125A1.503 1.503 0 0 1 9.496 25zm9.066 0h.928a.5.5 0 1 1 0 1h-.927a.561.561 0 0 0-.573.574V27h1a.5.5 0 1 1 0 1h-1v1.5a.5.5 0 1 1-1 0v-1.969a.5.5 0 0 1 0-.074v-.883A1.58 1.58 0 0 1 18.563 25zm-9.066.996a.493.493 0 0 0-.5.494v.01c0 .282.218.5.5.5.282 0 .5-.218.5-.5 0-.282-.218-.5-.5-.5v-.004zm3.486.004v3h.438c.892 0 1.576-.67 1.576-1.5S14.312 26 13.42 26h-.438z"></path><path stroke="#000" stroke-linecap="round" stroke-linejoin="round" d="M26.496 7.504h-4.5c-.83 0-1.5-.67-1.5-1.5v-4.5"></path><path fill-rule="evenodd" style="line-height:normal;text-indent:0;text-align:start;text-decoration-line:none;text-decoration-style:solid;text-decoration-color:#000;text-transform:none;block-progression:tb;isolation:auto;mix-blend-mode:normal" d="M7.5 1023.362a.5.5 0 0 0-.5.5v4a.5.5 0 0 0 .5.5h5a.5.5 0 0 0 .5-.5v-4a.5.5 0 0 0-.5-.5h-5zm6.957 0a.5.5 0 0 0 .05 1H18.5a.5.5 0 1 0 0-1h-3.992a.5.5 0 0 0-.051 0zm-6.457 1h4v3H8v-3zm6.457 1a.5.5 0 0 0 .05 1H18.5a.5.5 0 1 0 0-1h-3.992a.5.5 0 0 0-.051 0zm0 2a.5.5 0 0 0 .05 1H18.5a.5.5 0 1 0 0-1h-3.992a.5.5 0 0 0-.051 0zm-7 2a.5.5 0 0 0 .05 1h4a.5.5 0 1 0 0-1h-4a.5.5 0 0 0-.05 0zm6 0a.5.5 0 0 0 .05 1h1a.5.5 0 1 0 0-1h-1a.5.5 0 0 0-.05 0zm3 0a.5.5 0 0 0 .05 1H24.5a.5.5 0 1 0 0-1h-7.992a.5.5 0 0 0-.051 0zm-9 2a.5.5 0 0 0 .05 1h6a.5.5 0 1 0 0-1h-6a.5.5 0 0 0-.05 0zm8 0a.5.5 0 0 0 .05 1h1a.5.5 0 1 0 0-1h-1a.5.5 0 0 0-.05 0zm3 0a.5.5 0 0 0 .05 1H24.5a.5.5 0 1 0 0-1h-5.992a.5.5 0 0 0-.051 0zm-11 2a.5.5 0 0 0 .05 1h8a.5.5 0 1 0 0-1h-8a.5.5 0 0 0-.05 0zm10 0a.5.5 0 0 0 .05 1h1a.5.5 0 1 0 0-1h-1a.5.5 0 0 0-.05 0zm3 0a.5.5 0 0 0 .05 1H24.5a.5.5 0 1 0 0-1h-3.992a.5.5 0 0 0-.051 0zm-13 2a.5.5 0 0 0 .05 1h4a.5.5 0 1 0 0-1h-4a.5.5 0 0 0-.05 0zm6 0a.5.5 0 0 0 .05 1h1a.5.5 0 1 0 0-1h-1a.5.5 0 0 0-.05 0zm3 0a.5.5 0 0 0 .05 1H24.5a.5.5 0 0 0 0-1h-7.992a.5.5 0 0 0-.051 0z" color="#000" font-family="sans-serif" font-weight="400" overflow="visible" transform="translate(0 -1020.362)"></path></svg>