<svg xmlns="http://www.w3.org/2000/svg" width="32" height="32" id="file"><path fill="none" stroke="#000" stroke-linecap="round" stroke-linejoin="round" d="M26.496 7.504v21.5c0 .83-.669 1.5-1.5 1.5h-18c-.83 0-1.5-.67-1.5-1.5v-26c0-.831.67-1.5 1.5-1.5h13.5z"></path><path d="M5 24.004v5c0 1.108.892 2 2 2h18c1.108 0 2-.892 2-2v-5H5zm15.465.986a.5.5 0 0 1 .05 0 .5.5 0 0 1 .483.543v3.963a.5.5 0 1 1-1 0v-2.502l-.6.8a.5.5 0 0 1-.902-.138l-.498-.664v2.504a.5.5 0 1 1-1 0v-3.99A.5.5 0 0 1 17.49 25a.5.5 0 0 1 .408.2h.004L19 26.665l1.096-1.467a.5.5 0 0 1 .369-.207v-.002zm-11.973.012a.5.5 0 0 1 .508.506v1.496h2v-1.496a.5.5 0 0 1 .492-.506.5.5 0 0 1 .508.506v1.914a.5.5 0 0 1 0 .16v1.916a.5.5 0 1 1-1 0v-1.494H9v1.494a.5.5 0 1 1-1 0V25.508a.5.5 0 0 1 .492-.506zm5.008 0h.941a.5.5 0 0 1 .051 0 .5.5 0 0 1 .06 0h.948a.5.5 0 1 1 0 1H15v3.494a.5.5 0 1 1-1 0v-3.494h-.5a.5.5 0 1 1 0-1zm8.99 0a.5.5 0 0 1 .508.506v3.496h1.494a.5.5 0 1 1 0 1h-1.986a.5.5 0 0 1-.168-.027.5.5 0 0 1-.027-.01.5.5 0 0 1-.077-.04.5.5 0 0 1-.035-.023.5.5 0 0 1-.012-.01.5.5 0 0 1-.013-.013.5.5 0 0 1-.026-.022.5.5 0 0 1-.011-.013.5.5 0 0 1-.026-.028.5.5 0 0 1-.023-.029.5.5 0 0 1-.006-.01.5.5 0 0 1-.02-.031.5.5 0 0 1-.027-.057.5.5 0 0 1-.014-.035.5.5 0 0 1-.003-.013.5.5 0 0 1-.02-.182v-3.953a.5.5 0 0 1 .492-.506z"></path><path stroke="#000" stroke-linecap="round" stroke-linejoin="round" d="M26.496 7.504h-4.5c-.83 0-1.5-.67-1.5-1.5v-4.5"></path><path fill-rule="evenodd" style="line-height:normal;text-indent:0;text-align:start;text-decoration-line:none;text-decoration-style:solid;text-decoration-color:#000;text-transform:none;block-progression:tb;isolation:auto;mix-blend-mode:normal" d="M13.523 1032.364a.5.5 0 0 0-.343.15l-3.03 2.993a.5.5 0 0 0-.013.014.5.5 0 0 0 .052.744l2.99 2.955a.5.5 0 1 0 .704-.711l-2.674-2.643 2.674-2.64a.5.5 0 0 0-.36-.862zm4.932 0a.5.5 0 0 0-.344.861l2.672 2.641-2.672 2.643a.5.5 0 1 0 .703.71l2.989-2.955a.5.5 0 0 0 .17-.546.5.5 0 0 0-.04-.092.5.5 0 0 0-.019-.035.5.5 0 0 0-.006-.01.5.5 0 0 0-.006-.01.5.5 0 0 0-.025-.031.5.5 0 0 0-.006-.01.5.5 0 0 0-.027-.03.5.5 0 0 0-.002 0l-.02-.017a.5.5 0 0 0-.016-.016l-2.992-2.96a.5.5 0 0 0-.36-.15z" color="#000" font-family="sans-serif" font-weight="400" overflow="visible" transform="translate(0 -1020.362)"></path></svg>