<svg xmlns="http://www.w3.org/2000/svg" width="32" height="32" id="file"><path fill="none" stroke="#000" stroke-linecap="round" stroke-linejoin="round" d="M26.496 7.504v21.5c0 .83-.669 1.5-1.5 1.5h-18c-.83 0-1.5-.67-1.5-1.5v-26c0-.831.67-1.5 1.5-1.5h13.5z"></path><path d="M5 24.004v5c0 1.108.892 2 2 2h18c1.108 0 2-.892 2-2v-5H5zm5.496.994a.5.5 0 0 1 .508.508v3.002a.5.5 0 0 1-.016.133A1.503 1.503 0 0 1 9.504 30c-.822 0-1.5-.678-1.5-1.5a.5.5 0 0 1 .492-.506.5.5 0 0 1 .508.506c0 .286.214.5.5.5.286 0 .5-.214.5-.5v-2.992a.5.5 0 0 1 .492-.508v-.002zm2.95.002a.5.5 0 0 1 .05 0 .5.5 0 0 1 .035 0h1.965a.5.5 0 1 1 0 1h-2c-.286 0-.5.214-.5.5 0 .286.214.5.5.5a.5.5 0 0 1 .035 0h.965a.5.5 0 0 1 .108.01 1.505 1.505 0 0 1 1.392 1.49c0 .787-.622 1.433-1.396 1.488a.5.5 0 0 1-.104.012h-2a.5.5 0 1 1 0-1h2c.286 0 .5-.214.5-.5 0-.286-.214-.5-.5-.5h-1a.5.5 0 0 1-.094-.01 1.504 1.504 0 0 1-1.406-1.49c0-.784.617-1.428 1.387-1.488a.5.5 0 0 1 .062-.012z"></path><path stroke="#000" stroke-linecap="round" stroke-linejoin="round" d="M26.496 7.504h-4.5c-.83 0-1.5-.67-1.5-1.5v-4.5"></path><path d="M13.508 1030.366c-1.1 0-2 .9-2 2v1c0 .563-.438 1-1 1a.5.5 0 0 0-.1.01.5.5 0 0 0-.387.352.5.5 0 0 0-.011.047.5.5 0 0 0 .498.592c.562 0 1 .437 1 1v1c0 1.1.9 2 2 2a.5.5 0 1 0 0-1c-.563 0-1-.438-1-1v-1c0-.599-.273-1.133-.694-1.5a1.99 1.99 0 0 0 .694-1.5v-1.001c0-.562.437-1 1-1a.5.5 0 1 0 0-1zm4.933 0a.5.5 0 0 0 .051 1c.563 0 1 .437 1 1v1c0 .599.273 1.133.694 1.5-.42.368-.694.902-.694 1.5v1c0 .563-.437 1-1 1a.5.5 0 1 0 0 1c1.1 0 2-.9 2-2v-1c0-.562.438-1 1-1a.5.5 0 0 0 .324-.113.5.5 0 0 0 .038-.035.5.5 0 0 0-.362-.852c-.562 0-1-.437-1-1v-1c0-1.1-.9-2-2-2a.5.5 0 0 0-.05 0zM16 1031.86a1 1 0 0 0-1 1 1 1 0 0 0 1 1 1 1 0 0 0 1-1 1 1 0 0 0-1-1zm0 3a1 1 0 0 0-1 1 1 1 0 0 0 .508.871l-.45.903a.5.5 0 1 0 .895.445l.75-1.508a1 1 0 0 0 .295-.672.5.5 0 0 0 0-.01 1 1 0 0 0 .002-.033 1 1 0 0 0-1-1z" color="#000" font-family="sans-serif" font-weight="400" overflow="visible" style="line-height:normal;text-indent:0;text-align:start;text-decoration-line:none;text-decoration-style:solid;text-decoration-color:#000;text-transform:none;block-progression:tb;isolation:auto;mix-blend-mode:normal" transform="translate(0 -1020.362)"></path></svg>