<svg xmlns="http://www.w3.org/2000/svg" width="32" height="32" id="file"><path fill="none" stroke="#000" stroke-linecap="round" stroke-linejoin="round" d="M26.496 7.504v21.5c0 .83-.669 1.5-1.5 1.5h-18c-.83 0-1.5-.67-1.5-1.5v-26c0-.831.67-1.5 1.5-1.5h13.5z"></path><path d="M5 24.004v5c0 1.108.892 2 2 2h18c1.108 0 2-.892 2-2v-5H5zm8.459.994a.5.5 0 0 1 .05 0 .5.5 0 0 1 .442.283l1.553 3.106 1.553-3.106a.5.5 0 0 1 .894.448l-2 4a.5.5 0 0 1-.894 0l-2-4a.5.5 0 0 1 .402-.731zm-4.01.006a.5.5 0 0 1 .051 0 .5.5 0 0 1 .035 0H11.5a.5.5 0 1 1 0 1h-2c-.286 0-.5.214-.5.5 0 .286.214.5.5.5h1a.5.5 0 0 1 .107.01A1.505 1.505 0 0 1 12 28.504c0 .787-.622 1.433-1.396 1.488a.5.5 0 0 1-.104.012h-2a.5.5 0 1 1 0-1h2c.286 0 .5-.214.5-.5 0-.286-.214-.5-.5-.5h-1a.5.5 0 0 1-.094-.01A1.504 1.504 0 0 1 8 26.504c0-.784.617-1.43 1.387-1.484a.5.5 0 0 1 .062-.012v-.004zm11.125 0H22.5a.5.5 0 1 1 0 1h-1.926a.563.563 0 0 0-.574.574v1.852c0 .326.248.574.574.562h.852a.563.563 0 0 0 .574-.574V27.993h-.492a.5.5 0 1 1 0-1h.984a.5.5 0 0 1 .035 0 .5.5 0 0 1 .05.009.5.5 0 0 1 .015 0 .5.5 0 0 1 .033.01.5.5 0 0 1 .016 0 .5.5 0 0 1 .033.011.5.5 0 0 1 .045.02.5.5 0 0 1 .045.023.5.5 0 0 1 .04.03.5.5 0 0 1 .032.023.5.5 0 0 1 .006.012.5.5 0 0 1 .012.012.5.5 0 0 1 .023.025.5.5 0 0 1 .01.012.5.5 0 0 1 .021.025.5.5 0 0 1 .045.08.5.5 0 0 1 .004.012.5.5 0 0 1 .006.015.5.5 0 0 1 .012.032.5.5 0 0 1 .013.049.5.5 0 0 1 .008.048.5.5 0 0 1 .002.016.5.5 0 0 1 .002.035.5.5 0 0 1 0 .01.5.5 0 0 1 0 .01v.986a.5.5 0 0 1-.023.158 1.58 1.58 0 0 1-1.551 1.348h-.852c-.863 0-1.574-.711-1.574-1.574v-1.852c0-.863.711-1.574 1.574-1.57v-.004z"></path><path stroke="#000" stroke-linecap="round" stroke-linejoin="round" d="M26.496 7.504h-4.5c-.83 0-1.5-.67-1.5-1.5v-4.5"></path><path style="line-height:normal;text-indent:0;text-align:start;text-decoration-line:none;text-decoration-style:solid;text-decoration-color:#000;text-transform:none;block-progression:tb;isolation:auto;mix-blend-mode:normal" d="M13.5 1031.366v2h-2.594c-.208-.579-.76-1-1.406-1-.823 0-1.5.678-1.5 1.5 0 .823.677 1.5 1.5 1.5.646 0 1.197-.422 1.406-1h1.389c-2.028 1.179-3.295 3.247-3.295 5.5v.5h1v-.5c0-1.95 1.124-3.762 2.984-4.754.168-.089.342-.161.516-.234v1.488h5v-1.488c.174.073.348.145.516.234 1.86.992 2.984 2.803 2.984 4.754v.5h1v-.5c0-2.253-1.267-4.321-3.295-5.5h1.389c.209.578.76 1 1.406 1 .823 0 1.5-.677 1.5-1.5 0-.822-.677-1.5-1.5-1.5-.647 0-1.198.421-1.406 1H18.5v-2h-5zm1 1h3v1h-3v-1zm-5 1c.282 0 .5.218.5.5 0 .282-.218.5-.5.5a.493.493 0 0 1-.5-.5c0-.282.218-.5.5-.5zm13 0c.282 0 .5.218.5.5 0 .282-.218.5-.5.5a.493.493 0 0 1-.5-.5c0-.282.218-.5.5-.5zm-6.5 1.002c.504 0 1.009.06 1.5.176v.822h-3v-.822a6.543 6.543 0 0 1 1.5-.176z" color="#000" font-family="sans-serif" font-weight="400" overflow="visible" transform="translate(0 -1020.362)"></path></svg>