<svg xmlns="http://www.w3.org/2000/svg" width="32" height="32" id="file"><path fill="none" stroke="#000" stroke-linecap="round" stroke-linejoin="round" d="M26.496 7.504v21.5c0 .83-.669 1.5-1.5 1.5h-18c-.83 0-1.5-.67-1.5-1.5v-26c0-.831.67-1.5 1.5-1.5h13.5z"></path><path d="M5 24.004v5c0 1.108.892 2 2 2h18c1.108 0 2-.892 2-2v-5H5zm7.52.982a.5.5 0 0 1 .382.207L14 26.658l1.098-1.465a.5.5 0 0 1 .367-.205.5.5 0 0 1 .433.805l-1.273 1.701 1.273 1.7a.5.5 0 0 1-.8.599L14 28.328l-1.098 1.465a.5.5 0 0 1-.8-.6l1.273-1.699-1.273-1.701a.5.5 0 0 1 .367-.805.5.5 0 0 1 .05 0v-.002zm-3.02.002a.5.5 0 0 1 .115.012h.893a.5.5 0 1 1 0 1h-.5v3.49a.5.5 0 1 1-1 0V26h-.5a.5.5 0 1 1 0-1h.887a.5.5 0 0 1 .105-.012zm8.992 0a.5.5 0 0 1 .115.012h.885a.5.5 0 1 1 0 1H19v3.49a.5.5 0 1 1-1 0V26h-.508a.5.5 0 1 1 0-1h.895a.5.5 0 0 1 .105-.012z"></path><path stroke="#000" stroke-linecap="round" stroke-linejoin="round" d="M26.496 7.504h-4.5c-.83 0-1.5-.67-1.5-1.5v-4.5"></path><path fill-rule="evenodd" style="line-height:normal;text-indent:0;text-align:start;text-decoration-line:none;text-decoration-style:solid;text-decoration-color:#000;text-transform:none;block-progression:tb;isolation:auto;mix-blend-mode:normal" d="M7.475 1024.363a.5.5 0 1 0 .051 1h4.992a.5.5 0 1 0 0-1H7.526a.5.5 0 0 0-.05 0zm0 2a.5.5 0 1 0 .051 1h9a.5.5 0 1 0 0-1h-9a.5.5 0 0 0-.05 0zm0 3a.5.5 0 1 0 .051 1h4a.5.5 0 1 0 0-1h-4a.5.5 0 0 0-.05 0zm6 0a.5.5 0 1 0 .051 1h1a.5.5 0 1 0 0-1h-1a.5.5 0 0 0-.05 0zm3 0a.5.5 0 1 0 .051 1h7.992a.5.5 0 1 0 0-1h-7.992a.5.5 0 0 0-.05 0zm-9 2a.5.5 0 1 0 .051 1h6a.5.5 0 1 0 0-1h-6a.5.5 0 0 0-.05 0zm8 0a.5.5 0 1 0 .051 1h1a.5.5 0 1 0 0-1h-1a.5.5 0 0 0-.05 0zm3 0a.5.5 0 1 0 .051 1h5.992a.5.5 0 1 0 0-1h-5.992a.5.5 0 0 0-.05 0zm-11 2a.5.5 0 1 0 .051 1h8a.5.5 0 1 0 0-1h-8a.5.5 0 0 0-.05 0zm10 0a.5.5 0 1 0 .051 1h1a.5.5 0 1 0 0-1h-1a.5.5 0 0 0-.05 0zm3 0a.5.5 0 1 0 .051 1h3.992a.5.5 0 1 0 0-1h-3.992a.5.5 0 0 0-.05 0zm-13 2a.5.5 0 1 0 .051 1h4a.5.5 0 1 0 0-1h-4a.5.5 0 0 0-.05 0zm6 0a.5.5 0 1 0 .051 1h1a.5.5 0 1 0 0-1h-1a.5.5 0 0 0-.05 0zm3 0a.5.5 0 1 0 .051 1H24.518a.5.5 0 0 0 0-1h-7.992a.5.5 0 0 0-.05 0z" color="#000" font-family="sans-serif" font-weight="400" overflow="visible" transform="translate(0 -1020.362)"></path></svg>