<svg xmlns="http://www.w3.org/2000/svg" width="32" height="32" id="file"><path fill="none" stroke="#000" stroke-linecap="round" stroke-linejoin="round" d="M26.498 7.504v21.5c0 .83-.669 1.5-1.5 1.5h-18c-.83 0-1.5-.67-1.5-1.5v-26c0-.831.67-1.5 1.5-1.5h13.5z"></path><path d="M4.998 24.004v5c0 1.108.892 2 2 2h18c1.108 0 2-.892 2-2v-5h-22zm6.514.982a.5.5 0 0 1 .146.028.5.5 0 0 1 .018.01.5.5 0 0 1 .03.011.5.5 0 0 1 .015.01.5.5 0 0 1 .029.016.5.5 0 0 1 .115.775l-2.363 3.156h1.992a.5.5 0 1 1 0 1H8.506a.5.5 0 0 1-.059 0 .5.5 0 0 1-.01 0 .5.5 0 0 1-.302-.838L10.498 26H8.506a.5.5 0 1 1 0-1h2.955a.5.5 0 0 1 .05 0v-.014zm1.978.004a.5.5 0 0 1 .508.506v4.002a.5.5 0 1 1-1 0v-4.002a.5.5 0 0 1 .492-.506zm3.008.02v.006c.823 0 1.5.677 1.5 1.5 0 .822-.677 1.5-1.5 1.5-.176 0-.343-.037-.5-.094v1.588a.5.5 0 1 1-1 0v-3.006a.5.5 0 0 1 .014-.125l.002-.01c.073-.757.71-1.36 1.484-1.36zm0 .996a.493.493 0 0 0-.5.494v.01c0 .282.218.5.5.5.282 0 .5-.218.5-.5 0-.282-.218-.5-.5-.5v-.004z"></path><path stroke="#000" stroke-linecap="round" stroke-linejoin="round" d="M26.495 7.504h-4.5c-.831 0-1.5-.67-1.5-1.5v-4.5"></path><path fill-rule="evenodd" style="line-height:normal;text-indent:0;text-align:start;text-decoration-line:none;text-decoration-style:solid;text-decoration-color:#000;text-transform:none;block-progression:tb;isolation:auto;mix-blend-mode:normal" d="M15.498 1027.362v1h-1v1h1v1h-1v1h1v1h-1v1h1v1h-1v1h1v1h-1v1h1v1h-.5a.5.5 0 0 0-.5.5v.965a.5.5 0 0 0 0 .035v1c0 .822.678 1.5 1.5 1.5s1.5-.678 1.5-1.5v-.467a.5.5 0 0 0 0-.033v-1.5a.5.5 0 0 0-.5-.5h-.5v-1h1v-1h-1v-1h1v-1h-1v-1h1v-1h-1v-1h1v-1h-1v-1h1v-1h-1v-1h-1zm0 12h1v1.5c0 .286-.214.5-.5.5a.488.488 0 0 1-.5-.5v-.467a.5.5 0 0 0 0-.033v-1z" color="#000" font-family="sans-serif" font-weight="400" overflow="visible" transform="translate(0 -1020.362)"></path></svg>